<?xml version="1.0" encoding="utf-8"?>
<!-- Generator: Adobe Illustrator 19.2.1, SVG Export Plug-In . SVG Version: 6.00 Build 0)  -->
<svg version="1.1" id="Layer_1" xmlns="http://www.w3.org/2000/svg" xmlns:xlink="http://www.w3.org/1999/xlink" x="0px" y="0px"
	 viewBox="0 0 204 210.5" style="enable-background:new 0 0 204 210.5;" xml:space="preserve">
<style type="text/css">
	.st0{fill:#FFFFFF;}
	.st1{fill:#293549;}
	.st2{fill:#3BAB5E;}
	.st3{fill:#F7F8F9;}
	.st4{opacity:0.4;fill:#424143;enable-background:new    ;}
	.st5{opacity:0.1;fill:#221F1F;enable-background:new    ;}
</style>
<g>
	<path class="st0" d="M19.7,58.7c0-2.4,1.7-5.4,3.8-6.6l80-46.2c2.1-1.2,5.5-1.2,7.6,0l80,46.2c2.1,1.2,3.8,4.2,3.8,6.6v92.4
		c0,2.4-1.7,5.4-3.8,6.6l-80,46.2c-2.1,1.2-5.5,1.2-7.6,0l-80-46.2c-2.1-1.2-3.8-4.2-3.8-6.6V58.7z"/>
	<g>
		<g>
			<g>
				<g>
					<g>
						<path class="st1" d="M61.5,38.5c0-3,2.4-5.4,5.4-5.4l81,0c3,0,5.4,2.4,5.4,5.4v132.9c0,3-2.4,5.4-5.4,5.4h-81
							c-3,0-5.4-2.4-5.4-5.4C61.5,171.4,61.5,38.5,61.5,38.5z"/>
					</g>
				</g>
				<g>
					<g>
						<rect x="66.9" y="51.9" class="st2" width="81" height="101.5"/>
					</g>
				</g>
				<g>
					<g>
						<g>
							<path class="st3" d="M110.7,41.9l-6.7,0c-0.2,0-0.3-0.1-0.3-0.3c0-0.1,0.1-0.3,0.3-0.3h6.7c0.2,0,0.3,0.1,0.3,0.3
								C111,41.8,110.9,41.9,110.7,41.9z"/>
						</g>
					</g>
					<g>
						<g>
							<path class="st3" d="M112.9,43.4h-11c-0.1,0-0.3-0.1-0.3-0.3s0.1-0.3,0.3-0.3h11c0.1,0,0.3,0.1,0.3,0.3
								C113.2,43.3,113.1,43.4,112.9,43.4z"/>
						</g>
					</g>
					<g>
						<g>
							<path class="st3" d="M110.7,44.8h-6.7c-0.1,0-0.3-0.1-0.3-0.3c0-0.1,0.1-0.3,0.3-0.3l6.7,0c0.2,0,0.3,0.1,0.3,0.3
								C111,44.7,110.9,44.8,110.7,44.8z"/>
						</g>
					</g>
				</g>
			</g>
			<g>
				<path class="st3" d="M107.4,171.9c-3.2,0-5.8-2.6-5.8-5.9s2.6-5.8,5.8-5.8s5.8,2.6,5.8,5.8S110.6,171.9,107.4,171.9z
					 M107.4,160.7c-2.9,0-5.3,2.4-5.3,5.3c0,2.9,2.4,5.3,5.3,5.3c2.9,0,5.3-2.4,5.3-5.3C112.7,163.1,110.3,160.7,107.4,160.7z"/>
			</g>
		</g>
		<rect x="73.6" y="57.3" class="st3" width="67.5" height="19.1"/>
		<g>
			<rect x="97.3" y="82.7" class="st4" width="43.9" height="19.1"/>
			<rect x="73.6" y="82.5" class="st4" width="19.3" height="19.3"/>
			<rect x="97.3" y="106.5" class="st4" width="43.9" height="19.1"/>
			<rect x="73.6" y="106.3" class="st4" width="19.3" height="19.3"/>
			<rect x="97.3" y="130.2" class="st4" width="43.9" height="19.1"/>
			<rect x="73.6" y="130.1" class="st4" width="19.3" height="19.3"/>
		</g>
	</g>
	<path class="st5" d="M191.1,52.1L111,5.9c-1-0.6-2.3-0.9-3.6-0.9v199.9c1.3,0,2.6-0.3,3.6-0.9l80-46.2c2.1-1.2,3.8-4.2,3.8-6.6
		V58.7C194.9,56.3,193.2,53.3,191.1,52.1z"/>
</g>
</svg>
