<svg height="512pt" viewBox="0 0 512 512" width="512pt" xmlns="http://www.w3.org/2000/svg"><path d="m512 307.007812v-102.015624h-39.597656c-5.570313-23.628907-14.921875-45.8125-27.378906-65.878907l28.066406-28.0625-72.136719-72.136719-28.066406 28.0625c-20.066407-12.453124-42.246094-21.808593-65.878907-27.375v-39.601562h-51.007812l-20.015625 248.519531 20.015625 263.480469h51.007812v-39.597656c23.628907-5.570313 45.8125-14.921875 65.878907-27.378906l28.0625 28.066406 72.136719-72.136719-28.0625-28.066406c12.453124-20.066407 21.808593-42.246094 27.375-65.878907zm0 0" fill="#0051bf"/><path d="m204.992188 0v39.597656c-23.628907 5.570313-45.8125 14.921875-65.878907 27.378906l-28.0625-28.066406-72.136719 72.136719 28.0625 28.066406c-12.453124 20.066407-21.808593 42.246094-27.375 65.878907h-39.601562v102.015624h39.597656c5.570313 23.628907 14.921875 45.8125 27.378906 65.878907l-28.066406 28.0625 72.136719 72.136719 28.066406-28.0625c20.066407 12.453124 42.246094 21.804687 65.878907 27.375v39.601562h51.007812v-512zm0 0" fill="#046eff"/><path d="m287.894531 115.699219v90.78125h-31.894531l-20.015625 58.609375 20.015625 131.210937c14.726562 0 28.988281-2.035156 42.523438-5.824219v-75.949218c37.507812-16.4375 63.777343-53.914063 63.777343-97.414063 0-47.507812-31.328125-87.835937-74.40625-101.414062zm0 0" fill="#b4d2d7"/><path d="m224.105469 206.480469v-90.777344c-43.078125 13.578125-74.40625 53.902344-74.40625 101.410156 0 43.5 26.269531 80.976563 63.777343 97.414063v75.949218c13.535157 3.789063 27.796876 5.824219 42.523438 5.824219v-189.820312zm0 0" fill="#e1ebf0"/></svg>