<?xml version="1.0" encoding="utf-8"?>
<!-- Generator: Adobe Illustrator 16.0.3, SVG Export Plug-In . SVG Version: 6.00 Build 0)  -->
<!DOCTYPE svg PUBLIC "-//W3C//DTD SVG 1.1//EN" "http://www.w3.org/Graphics/SVG/1.1/DTD/svg11.dtd">
<svg version="1.1" id="Capa_1" xmlns="http://www.w3.org/2000/svg" xmlns:xlink="http://www.w3.org/1999/xlink" x="0px" y="0px"
	 width="512px" height="512px" viewBox="0 0 512 512" enable-background="new 0 0 512 512" xml:space="preserve">
<path fill="#12AFAF" d="M106.493,191.693v-16.851h-6.54c-0.92-3.902-2.465-7.566-4.523-10.881l4.636-4.635l-11.915-11.915
	l-4.636,4.635c-3.314-2.058-6.978-3.603-10.881-4.522v-6.541H64.21l-3.307,41.049l3.307,43.519h8.425v-6.54
	c3.902-0.92,7.567-2.465,10.881-4.522l4.636,4.636l11.915-11.916l-4.635-4.635c2.057-3.314,3.603-6.978,4.522-10.881H106.493z"/>
<path fill="#12AFAF" d="M55.785,140.984v6.541c-3.903,0.92-7.567,2.464-10.882,4.522l-4.635-4.636l-11.915,11.916l4.635,4.635
	c-2.058,3.315-3.602,6.978-4.522,10.881h-6.541v16.851h6.54c0.92,3.902,2.465,7.567,4.522,10.881l-4.636,4.634l11.915,11.916
	l4.636-4.635c3.315,2.057,6.978,3.601,10.882,4.521v6.541h8.425v-84.568H55.785z"/>
<path fill="#050001" d="M69.478,160.094v14.995H64.21l-3.307,9.681l3.307,21.673c2.432,0,4.788-0.336,7.023-0.962v-12.544
	c6.195-2.715,10.535-8.906,10.535-16.091C81.768,168.998,76.593,162.337,69.478,160.094z"/>
<path fill="#0C0005" d="M58.942,175.088v-14.994c-7.115,2.243-12.29,8.903-12.29,16.75c0,7.185,4.339,13.375,10.535,16.091v12.544
	c2.236,0.625,4.591,0.962,7.024,0.962v-31.354H58.942z"/>
<rect id="_x3C_Sector_x3E_" x="77.359" y="212.635" fill="none" width="8.818" height="20.086"/>
<rect id="_x3C_Sector_x3E__1_" x="-0.5" y="89.5" fill="none" width="509" height="183"/>
<rect id="_x3C_Sector_x3E__2_" x="5.5" y="127.5" fill="none" width="126" height="117"/>
</svg>
