<?xml version="1.0" encoding="utf-8"?>
<!-- Generator: Adobe Illustrator 16.0.3, SVG Export Plug-In . SVG Version: 6.00 Build 0)  -->
<!DOCTYPE svg PUBLIC "-//W3C//DTD SVG 1.1//EN" "http://www.w3.org/Graphics/SVG/1.1/DTD/svg11.dtd">
<svg version="1.1" id="Página_inicial" xmlns="http://www.w3.org/2000/svg" xmlns:xlink="http://www.w3.org/1999/xlink" x="0px"
	 y="0px" width="960px" height="560px" viewBox="0 0 960 560" enable-background="new 0 0 960 560" xml:space="preserve">
<title>logo</title>
<path fill="#FFFFFF" d="M306.162,344.216V213.189h23.352l20.108,51.244c3.892,10.378,10.378,27.243,14.271,38.271h0.648
	c-0.648-13.622-2.595-36.974-2.595-60.974v-28.541h22.703v131.027h-23.351l-20.108-49.945c-5.189-12.974-9.081-25.946-12.973-39.568
	h-0.649c0.649,12.973,1.297,33.73,1.297,59.675v29.838H306.162L306.162,344.216z"/>
<path fill="#FFFFFF" d="M462.486,286.486h-29.838v35.676h33.729v22.054h-59.675V213.189h57.081v22.054H432v30.486h29.838
	L462.486,286.486L462.486,286.486z"/>
<path fill="#FFFFFF" d="M498.162,236.541h-23.352v-23.352h72v23.352h-23.352v107.675h-25.297V236.541z"/>
<path fill="#FFFFFF" d="M577.297,344.216l-22.702-131.675h26.595l6.486,52.541c1.946,14.919,3.243,29.838,4.54,46.054h0.649
	c1.945-16.216,4.54-30.486,7.135-46.054l9.081-52.541h20.757l9.081,51.892c2.595,14.919,4.54,29.188,6.486,46.702h0.648
	c1.946-16.864,3.243-31.135,5.189-46.702l6.486-51.892h24.648l-23.351,131.675h-26.595l-7.784-42.811
	c-1.945-12.324-3.892-27.243-5.838-42.811h-0.648c-2.595,15.567-4.54,30.486-7.135,43.46l-9.081,42.811L577.297,344.216
	L577.297,344.216z"/>
<path fill="#FFFFFF" d="M773.838,276.108c0,49.297-17.514,69.406-42.811,69.406c-25.298,0-41.514-31.784-41.514-67.459
	c0-35.676,14.271-66.811,43.459-66.811C762.162,211.243,773.838,246.271,773.838,276.108z M716.108,278.703
	c0,29.838,5.838,44.756,16.216,44.756c10.379,0,14.919-19.459,14.919-46.054s-3.243-44.108-14.919-44.108
	S716.108,250.162,716.108,278.703z"/>
<path fill="#FFFFFF" d="M790.054,215.135c9.081-1.946,18.812-2.595,27.893-2.595c14.27,0,26.595,1.946,35.026,9.73
	c7.136,7.135,11.027,16.865,10.379,27.243c0.648,14.27-7.136,27.243-20.108,33.081l0,0c9.081,3.243,13.622,11.676,16.216,25.946
	c1.946,12.324,4.541,24,8.433,35.675h-26.595c-3.243-10.378-5.188-20.757-6.486-31.135c-2.595-16.216-6.486-20.757-14.919-20.757
	H816v52.541h-25.297L790.054,215.135L790.054,215.135z M815.352,272.216h4.54c11.027,0,17.514-9.081,17.514-20.757
	s-4.54-18.811-16.216-19.459h-5.838v38.919V272.216z"/>
<path fill="#FFFFFF" d="M881.514,213.189h25.297v59.027h0.648l6.487-16.865l17.513-42.163h27.893l-29.189,57.082L960,344.865
	h-27.892l-18.812-54.486l-5.837,11.026v43.46h-25.946V213.189L881.514,213.189z"/>
<g id="Logo">
	<g id="xamagon">
		<path id="Logo-2" fill="#12AFAF" d="M64.216,182.703c-5.838,0-11.676,3.243-14.919,8.433L1.946,272.865
			c-2.594,5.189-2.594,11.676,0,16.865l47.352,80.433c3.243,4.541,9.081,7.784,14.919,7.135h94.703
			c5.838,0.649,11.676-2.594,14.919-7.135l47.351-81.081c3.244-5.188,3.244-11.676,0-16.865l-47.351-81.081
			c-3.243-5.189-9.081-8.433-14.919-8.433H64.216z M64.865,228.757h16.865c0.649,0.648,1.297,1.297,1.946,1.946L111.567,280v1.297
			l0,0l27.892-49.945c0.648-0.649,1.297-1.297,1.946-1.946h16.216c1.297,0.649,2.595,2.595,1.946,3.892l-27.243,48.648
			l27.243,48.001c0.649,1.297-0.648,2.595-1.946,3.243l0,0h-16.216l-1.946-1.298l-27.892-48.648h-0.648l-27.892,48.648l-1.946,1.298
			H64.865c-1.297,0-1.946,0-2.594-1.298c0-0.648,0-1.297,0.648-1.945l27.243-48.001l-27.243-48.648
			c-0.648-1.297,0-2.595,1.297-3.243l0,0L64.865,228.757z"/>
	</g>
</g>
</svg>
