<svg id="P치gina_inicial_PC" data-name="P치gina inicial PC" xmlns="http://www.w3.org/2000/svg" viewBox="0 0 305.2 278.2"><defs><style>.cls-1{fill:#d1ecfb;}.cls-2{fill:#57d357;}.cls-3{fill:#103754;}.cls-4{fill:none;}.cls-5{fill:#c1e2de;}.cls-6{fill:#0e303f;}.cls-7{fill:#fff;}.cls-8{fill:#fd6120;}.cls-9{fill:#b7c9cb;}</style></defs><title>mundo-movil</title><g id="Porque_somos_tu_mejor_elecci칩n" data-name="Porque somos tu mejor elecci칩n"><path class="cls-1" d="M3275.8,3111.3c-76.7,0-139.1,62.4-139.1,139.1s62.4,139.1,139.1,139.1,139.2-62.3,139.2-139S3352.5,3111.3,3275.8,3111.3Z" transform="translate(-3109.8 -3111.3)"/><path class="cls-2" d="M3407.6,3288.3c-1.8,0-4.2.9-4.2,1.5s-2.5,1.7-3.4,2.1-2.4,2.9-2.8,3.7-2.4.6-3.1,0.9-2.3,1.6-2.3,2.3-0.4.6-.9-0.2l-1,1-1.2,1.3c-0.7,2.1-2.9,4.8-3.7,5s-0.9,3.9-.9,5.4a7.1,7.1,0,0,0,1.3,4.1v1.2l0.2,2.4a4.2,4.2,0,0,0,1.4,3.8c0.4,0.3,3.8-.6,5.1-0.9l1.8-.7a141.6,141.6,0,0,0,14.3-33.2A1,1,0,0,1,3407.6,3288.3Z" transform="translate(-3109.8 -3111.3)"/><path class="cls-2" d="M3177.9,3291.8c-0.2.4,2.3,2.9,3.2,3.8s3,5,3.4,6.4a11.5,11.5,0,0,1,0,4.1,7,7,0,0,0,.5,2.1c0.1,0.5-.8,4.5-0.5,6.2s-1.9,6.7-1.8,9.3,1.2,5.8,1.6,5.6,0.6,2.3-.1,2.6-1.7,2.3-1.2,2.4,0,2.1.1,2.9,0.8,6.1.9,7.4,2,4.5,2.4,5.6,0.8,3.1.9,3.4l0.3,0.7a9.5,9.5,0,0,1,2,.9c0.4,0.3,3.4.1,4.4-.1s0.1-1.1-.3-1.5-0.8-2.8-1.3-3-0.7-3.2-.3-3.9,2.2-1.7,2.4-2.3,0.2-3.1-.2-3.5,0.1-3.5-.2-5.1,2.7-3,2.9-4.2,3.5-2.6,4.2-3.2,1.4-4.2,1-4.9,1.2-1.4,1.9-1.4a10,10,0,0,0,1.8-.5c0.2,0,1.1-1.6,1.5-1.9s1.4-4.1,2.2-4.7a6.8,6.8,0,0,0,1.5-3.5,9.3,9.3,0,0,1,1.7-3.2c0.4-.6,3.5-2,4.1-2.2s1.4-5.2,1.6-7a40.3,40.3,0,0,1,1.2-4.8c0-.6,1-1.1,1.2-1.3s0.9-2.5,1.4-3,2.2-2.7,2.2-3.2a15.9,15.9,0,0,1,.6-2.8v-3.1c-0.5-1.5-2.2-3.4-2.6-2.9s-2.3-1.3-3.3-1.7a16.3,16.3,0,0,0-4-.6c-0.6,0-2.7-1.7-3.7-2s-3.4-.7-3.8-1-1-3.9-3-5.1-5.4-4-5.8-5-4.1-3.1-5.3-3.8-2.9-.8-3.1-0.5-1.7-2-2.4-2.6-3-1.1-3.1-.6-1.6.2-1.9-.2-1.5.2-2.1,0.4-2.4,3-3.3,3.7-1.9-.6-2.5-0.9a6,6,0,0,0-3.3.9c-0.6.4-1.9-3-1.6-4.6s-1.4-4.7-2.8-4.8-1.7-3.4-1.5-4.6-2.4-2-3.1-2.1-2.3,1.6-2.6,2.5-6.4-1.1-5.7-4.8,3.6-7.5,4.3-7.9,4.6-.6,5.5-0.1a1.6,1.6,0,0,0,1.8-.2,12.2,12.2,0,0,1,4.3.4c0.9,0.4,2.3,4.1,3.3,4.5s1.3-2.4,1.5-3.1a9,9,0,0,0-.7-2.9c-0.2-.5,1.6-5,3.1-5.7s3.1-3.3,2.9-3.7,1.2-.8,1.5-1,0-3.8.5-4.6a17.2,17.2,0,0,1,4.3-2.8c0.9-.4,1.5-2.6,1.2-3.1s2.3-2.6,3.7-3.1,2.5,0.8,2.2.9,2.1-1.1,2.9-1.6,0-2.3-.6-2.8-0.2-2.4.5-2.6,1.3-1.9,1.1-2.2,3,0.3,4.2-.6,0.3,2.1-.5,3.4a1.4,1.4,0,0,0,1.2,2.2,1.3,1.3,0,0,1,1.3,1c0.1,0.3,1.3-.4,2.1,0s1.3-1.1,1.3-1.8-1.9-2-2.2-2.9a46,46,0,0,1-.4-6.5c0-.9-1.3-2.5-1.7-2.2s-1.2-2.5-1.9-3.1a3.5,3.5,0,0,1-.8-2.4c0-.4-2.2-2.8-2.8-3.9s-1.3-.9-1.4-0.4-1.6.6-2.3,0.5-1.2-2.6-1.2-3.5-2.9-1.1-3.4-1.9-2.4-.4-2.7-0.9a3.2,3.2,0,0,0-2.3-.8c-0.3.2-.2,7.1-0.5,8.9s-1.9,3.5-2.5,3.4-0.2,1.3.1,1.2-1.1,2-1.3,3.4-1.6,0-1.8-1.3-1.6-3-1.9-2.6-1.2-.5-1.6-0.2-3-1.5-4.1-2.1-1.6-3.8-2.3-4.1-0.1-.7-0.1-1.2,2.1-2.4,2.7-3.1,2.9-3.7,3.8-4.4,1.6-2.3,1.4-2.6,3.9-1.6,5-1.9,2-3.4,2.2-4.3a3.7,3.7,0,0,0-1.2-2.7c-0.5-.2,1.5-0.3,2.2.1s2.7-.6,3.6-0.2l3.7,2.2-0.2,2.2-0.5,3.8c-3.2,1.3-4.1,3.6-3,3.5s6.2,2.2,7.6,3.2,1.9-1.5,2.3-2.3a6.7,6.7,0,0,0,0-3.7c-0.4-.5,1.6-0.3,2.2.2s1.2-.5,1.6-0.8,0.6-2.3.9-2.7-0.9-.8-1-1.4-2.3-1.5-3-1.9a1.8,1.8,0,0,1-.5-2.2c0.3-.3-0.2-2.3-0.6-2.9s-2.7-1.2-3.5-1.2-1.6-1.8-2.1-2.1a14.6,14.6,0,0,0-4.3-.4c-0.7.2-2.1-2.2-3.4-1.4s-2.6-.8-3.2-1.2-3.6,2.9-3.5,5.1,1.1,4.4,1.6,4.5-0.1,2.1-.6,2.7-1.8-.6-1.3-1.1-1.3-2.9-1.9-3.8-2-1.3-3-1.7l-1.8,2a5.1,5.1,0,0,1,.2,2.7c-0.4,1.4-1.6,1.6-1.6,1a1.7,1.7,0,0,0-1.3-.5,138.3,138.3,0,0,0-31.3,72.7,6.6,6.6,0,0,1,1.6,2.3c0.4,1.2,2.5,2,2.9,2.3s0.5-2.3.2-3,0.5-1,.5-0.6,2,2.7,2.6,3.6,1.3,6.1,2,7.2,6.7,3.5,8.7,3.9a11,11,0,0,1,4.8,3.2c0.4,0.6,3,.9,3.5,1.2a27.8,27.8,0,0,1,2.4,2.4,3.5,3.5,0,0,1,1,1.7c0,0.3,3.4,1.6,4.3,2.5a2.1,2.1,0,0,0,2.5.3c0.2-.4.9,1.8,1.3,2.6s0.4,2.6.1,2.9-0.7,3.7-1.3,4.4-1.8,5.7-1.5,6.7a7.4,7.4,0,0,0,2.6,3.3,0.8,0.8,0,0,1-.1,1.4c-0.5,0-.3,4.9,1,5.6S3178.1,3291.5,3177.9,3291.8Z" transform="translate(-3109.8 -3111.3)"/><path class="cls-3" d="M3194.2,3207.1h0Z" transform="translate(-3109.8 -3111.3)"/><path class="cls-2" d="M3184.7,3148.4c1.6-.3,4.4-0.8,4.6-1.2a4.2,4.2,0,0,0-.1-1.9h0.8c0.6,0,1.7-3.4,2.3-4.2s4.4-2,5.3-2.5,2.9-2.4,3.6-2.7,1.9-2,1.7-2.3,2.6-2,3.6-2.4,1.6-1.6,1.2-1.7-6,3-11.3,6a156.5,156.5,0,0,0-17.2,13.7Z" transform="translate(-3109.8 -3111.3)"/><path class="cls-2" d="M3285.4,3321.6c1.7-1,4.8-5.5,5.8-6.4s1.7-4.3,1.9-5a5.7,5.7,0,0,1,2.2-2.1c0.5-.2,2.3-7.6,3.9-9.3s3.4-9.5,3.2-12.4,1-8.2,1.4-9.5a14.6,14.6,0,0,1,2.9-4.1,83.9,83.9,0,0,0,5.6-8.1c1.2-2,2.4-6.4,2.1-7.5s-2.9-1.8-3.4-1.2-3,.9-3.8.9-2.6-4.3-3.7-5.1-2.1-5.8-2.8-6.7a46.4,46.4,0,0,0-3-3.8c-0.6-.5-0.7-3.1-0.8-3.8s1.1,0.4,1.3,1.5,3.1,5.2,4,6.6,3.3,5.9,3.9,7.3,5.9,0.7,7.7-.1,3.9-2.2,4-2.7,2.8-1.7,3.6-2.3,1.4-3.8,1.9-4.3-0.4-3.6-1-4.5-3.3-1.6-3.9-1.3-1.7-2-2.2-2.9-2.5-2-2.7-2.6a2.2,2.2,0,0,1,.9-1.8c0.3-.2,4.2,2.5,5.3,3.9a22,22,0,0,1,2.6,4.3c0.2,0.5,3.3.6,4,.1a1.1,1.1,0,0,1,1.7.3h0.9l3.4-.5a6.6,6.6,0,0,1,2,3.6,3.9,3.9,0,0,0,1.6,1.9c0.6,0.1,1.1,2.3,1.3,2.9a48.3,48.3,0,0,1,2.5,5.2,29.1,29.1,0,0,0,2.4,4.8,11,11,0,0,1,.7,3.4,2.3,2.3,0,0,0,2,1.6c0.7-.1,2.3-4.9,2.7-6.7s1.6-3.3,1.9-3.3,0.6-1,.6-1.4,1.9-.3,2.1-0.8,0.7-3.7,1.4-4.2a30.1,30.1,0,0,1,4-2.4c0.8-.3,3.1,1.6,3.6,2.5a7.5,7.5,0,0,1,.7,3.5c-0.2.3,1.1,2.3,2.3,2.3s1.5,1.5,1.6,2,1.6,2.1,1.9,2.8a6.6,6.6,0,0,1,0,3.1,15.9,15.9,0,0,0,.1,3.7c0.2,0.7,3.8,4.4,5.2,5.5s2-2.3,1.3-3.3-3.1-3.5-3.6-4.2-0.6-3.7-.4-4.5,2.1,0.4,2.8,1a5.8,5.8,0,0,1,1.8,2.3c0,0.4,4.9-2.3,5.1-5.2s1.8-6.3,1.9-7.1a2.1,2.1,0,0,0-.9-1.9c-0.4-.1.7-2.2,2.1-2.2s4.6-3.6,5.4-5.1a11.6,11.6,0,0,1,2.5-2.8,21.4,21.4,0,0,0,1.4-5c0.2-1.4-.8-3.6-0.9-4.4a11.9,11.9,0,0,0-1.6-2.9,6.1,6.1,0,0,1-.4-2.9c0.1-.3,1.4-0.7,1.5-1.1s1.5-1.8,1.4-2.5,0.8,0.9,1.5,1.4,1.3,4.1,2.1,4.4,4-3.7,3.6-6.4,0.9-6.1,1.7-6.4,2.1-2.4,3.1-3.9a139.2,139.2,0,0,0-34.3-54h-0.5l-1.2-.2c-2-.4-3.1-2.5-2.8-3a1.3,1.3,0,0,0,0-.9c-1.1-1-2.2-2-3.4-2.9h-2.5a11,11,0,0,1-4.2-1.3c-0.4-.4-2,0.4-2.1,1.3s-2.8,1.2-3,1.9a1.6,1.6,0,0,1-1.9.4c-0.2-.4-2.8.9-4,1a18.2,18.2,0,0,0-4.1,1.4,6.2,6.2,0,0,0-2.1,2.1,6.5,6.5,0,0,1-2.3,1.6c-0.5.2-.4,2.5,0.2,2.9s-1.2-.3-2.1-0.7-1.7,1-2,1.5-1-.3-1-1-2.1-1.2-2.3-.7-1.7-.2-2.3-0.5-3.2,2.4-4.2,3.4-5.6,1.7-6.4,1.4-1.7,2-1,2.2H3312a24.4,24.4,0,0,0-6.6,2.5,1.1,1.1,0,0,1-1.8-.7c0-.6-1.6-1.1-2-1.2s-1.4,3.1-2.2,3.7-1.8-2.5-3.8-3.1-5-2.4-5.9-2.6-2.6-2-3.1-2.6-3-.9-3.8-0.9-3.4,1.5-4.1,2-1.7.4-2.1,0.7-3.3,3-4.4,3.9-3.1,4.7-3.7,5.7a2.4,2.4,0,0,1-1.9,1.1,1.9,1.9,0,0,0-.7,1.4c0,0.4-3.3,2.1-3.7,3.6s0.4,5,.4,6.2,1.2,3.7,2.1,3.7,0.5,2.1.2,2.7,0.6,1.2.5,1.7-2.3,1.2-3,1.4a5,5,0,0,0-2,2.5c-0.1.5-2.3,0.9-3.1,1.6a9.1,9.1,0,0,1,.6-1.6,2.7,2.7,0,0,0-.5-2.5c-0.3-.3-0.5-4.3-1.1-5.2a22.4,22.4,0,0,0-2.3-2.6c-0.3-.3.2-1.3,0.5-1.8s-1.9-.7-2.4-0.4-0.9,4.3-1.1,5.4a3.4,3.4,0,0,0,1.4,2.8c0.4,0.1.2,2-.5,2.1s-1.4,2.9-1,3.6-0.5,1.9-.9,2.2,2.8,0.1,4.3.1a3.9,3.9,0,0,1,2.5.7c-0.1.1-2.8,0.5-3.3,1.1s-2.3,1.8-2.6,2.3,0.6,1.5,1.3,1.5,1.6,2.6,2.2,3.1a2.2,2.2,0,0,1,.1,2.3c-0.2.4-3.9-.2-5.2,0.1s-3.1,3.2-3.2,4.3a28.4,28.4,0,0,0,.4,5.1c0.1,0.9,3,1.4,3.6,1.8s3.3,0,3.9.3,2.4-2.8,2.8-4.2,3.3-4,3.9-5,3.7-.8,4.5-1.3,0.4,2.4.7,4,3.4,1.4,2.9-.1,0.3-2.1.4-1.6,3,1.7,3.6,2.5,0.4,2.6-.2,2.6-0.7,1.9,0,2.2,1.6-2.2,2.3-2.6,1.3-1.9,1-2,0.6-1.5,1-1-1.5-2.9-2.8-4.2-0.3-.7,1.9,1.2l1.6,2.2c0.3,0.4.7,1.6,1,2l0.4,0.6a16.2,16.2,0,0,1,.6,3.5,2.3,2.3,0,0,0,2,1.6,1.3,1.3,0,0,1,1.2.4c-0.1.1,0.5,1.5,1.2,1.5s1.1-1.9.3-1.9-0.6-2.8-.7-4.1,0.5-2.2.8-2.2,0,2.5,0,3.1a9.7,9.7,0,0,0,.7,2.5l0.8,0.6,1.7,1.3c2.5-.7,5.9-0.1,5.7.4s1.8,0.6,1.9-.2,0.2,0.1.2,0.6-1.6,2.8-1.9,3.8-6.1.3-8.6,0.1-6.2.6-6.4,1.4-4.1-1.7-5.9-2.4-3.2-3.4-3.5-3.8,0.3-1.2.1-1.8-4.2-.6-5.4-0.2-7.3,1.1-8.7,1.7-3.6,0-4.3-.1-2.3,1.9-3.1,2.2-1.8,3.2-2.3,6.3l-1.1,2.1-0.7,1.4c-2,1.5-4.2,6.6-4.9,7.7s-1.2,8.4-1.2,10.9,2.1,7.7,2.8,9.2,4.3,4.6,5.6,5.4,5.3,0.9,6.6.9a3.9,3.9,0,0,0,3.3-2.8l1.9,0.2h0.9c0,1.1,2.9,1.9,3.6,2.3a5.5,5.5,0,0,0,3.1-.1c0.5-.1,1.2,4.9.8,6.4s1,6.6,1.4,8.2,2.2,5.8,2.3,7.3-1,6.6-1.2,8.4,2.2,6.7,2.8,8.4a31,31,0,0,1,1.1,6.2c0,0.8,2.6,6,3.2,8.1S3283.6,3322.6,3285.4,3321.6Z" transform="translate(-3109.8 -3111.3)"/><path class="cls-2" d="M3400,3258.4c0.1,0.4,1.8-.9,2.8-1.1s1.6-2.8.8-3-1.7-2.3-2.3-2.5-1.6.9-1.6,1.7-1.8,1.1-2.2,1.8-0.3,1.1,0,1.1S3399.8,3258,3400,3258.4Z" transform="translate(-3109.8 -3111.3)"/><path class="cls-2" d="M3398,3273.1c0.5-.2,0-2.8-1.1-3s-3.9,3.5-3.4,5.6,1.1,2,1.4,1.5,2,0.3,2.5.4,0.5-.3,0-1.1S3397.5,3273.3,3398,3273.1Z" transform="translate(-3109.8 -3111.3)"/><path class="cls-2" d="M3392.3,3270.5c0.1-.9.3-3.9,0.4-4.5s-1.6-2.3-2.5-2.6-3.6,5.7-5.6,6.8-2.7,4.8-2.2,5.6,4.7,1.3,5.4,1.9,1.5-.1,2-0.2,0.3-.4.1-0.5,1.4-1.8,1.7-2.9A27.6,27.6,0,0,0,3392.3,3270.5Z" transform="translate(-3109.8 -3111.3)"/><path class="cls-2" d="M3380.9,3280.6c-1.5-.6-3.4.3-3.5,0.9s6,1.6,8.1,2.1,3.3,0.7,2.9.4Z" transform="translate(-3109.8 -3111.3)"/><path class="cls-2" d="M3393.6,3240.1c0.5-.7-0.7-3.9-1.3-3.2s-0.1,2.6,0,3.3S3393.1,3240.8,3393.6,3240.1Z" transform="translate(-3109.8 -3111.3)"/><path class="cls-2" d="M3397.2,3247.1c0.4-.8-0.4-1.7-1.8-2s-1.1,3.7-.5,4.2S3396.9,3247.9,3397.2,3247.1Z" transform="translate(-3109.8 -3111.3)"/><path class="cls-2" d="M3404.3,3272.1c1.6,1.1,5.2.6,5.3-1.5C3408,3269.5,3404.2,3269.7,3404.3,3272.1Z" transform="translate(-3109.8 -3111.3)"/><path class="cls-2" d="M3403.4,3222.5a2.3,2.3,0,0,0-.8,2.1h-0.3c-0.5,0-.6,2.1,0,2.5s1.9-1.6,2.6-2.1a3.4,3.4,0,0,1,2.3-.6,6.7,6.7,0,0,0,2.7-.8,2.4,2.4,0,0,0,.8-0.9c-0.3-1.5-.7-3-1-4.6l-1.8,1.3Z" transform="translate(-3109.8 -3111.3)"/><path class="cls-3" d="M3366.6,3265.3h0Z" transform="translate(-3109.8 -3111.3)"/><path class="cls-2" d="M3376.6,3274.6a18.4,18.4,0,0,0-4.2-4.9l-0.6-1.1-0.7-1.2c-0.6-1.3-2.6-2.3-2.8-2.7s-0.8,1.1-1.5.7l2.1,1.5c1.8,1.3,5.4,10.4,6.3,11S3377.2,3275.9,3376.6,3274.6Z" transform="translate(-3109.8 -3111.3)"/><path class="cls-2" d="M3347.9,3259.9c-0.5,1,2.6,3.2,2.9,2.7a6.6,6.6,0,0,0-.9-3.5C3349.3,3258.5,3348.5,3258.9,3347.9,3259.9Z" transform="translate(-3109.8 -3111.3)"/><path class="cls-2" d="M3305.9,3308.3c0.1,1.1,2.3,1.9,2.9,1.7s2.4-3.4,2.6-4.3a28.1,28.1,0,0,0,.5-3.4,4.4,4.4,0,0,1,.5-1.7,6.7,6.7,0,0,0,.9-2.4c0.2-1.2-1.3-6.9-1.3-7.9s-1.1.5-1.4,1.5-3.1,3.1-3.8,3.9-1.3,3.7-1,4.2a6.4,6.4,0,0,1-.5,3C3304.9,3303.5,3305.7,3307.3,3305.9,3308.3Z" transform="translate(-3109.8 -3111.3)"/><path class="cls-2" d="M3203.4,3347.9h1.9C3205.5,3345.8,3203.3,3346.1,3203.4,3347.9Z" transform="translate(-3109.8 -3111.3)"/><path class="cls-2" d="M3254.4,3132.5a6.4,6.4,0,0,1-3.2-.7,7.7,7.7,0,0,0-4.3-.3c-0.9.4-.3-2.2,0.9-2.4s0.2-2-1.1-2-4.6-.5-5.3-0.3a12.9,12.9,0,0,1-2.8-.6c-0.5-.1-4.5,1.2-6.3,1.1a42.5,42.5,0,0,0-7.4.4c-1,.2-1.7,2.2-1.5,2.9s-4.4.7-5.8,0.7-9.1,1.6-11.1,2.7-3.5,3.9-2.9,3.9-1.1,1.6-2.2,2-3.6.5-4.2,1.1,0.6,1,.8,1.4,0.9-.3,1.6.1,2.9,0.5,3.5.8-1.9.7-3,.8-0.9,2.3,0,2.7,3.4,0.6,3.6.2,2.9,0.4,4.1.6,2.1,3.1,2.5,3.8,0.4,2.9.4,3.6,2.1,1.8,2.5,1.4,0.3,1-.6.9-0.3,2.4.8,2.8,0.3,1.9-.3,2.4-0.3,1.9-.9,2.5,2.3,5.6,2.2,8.2,1.6,4.7,2.2,4.7,2.7,0.5,3,1.1,1.3-.4,1.7-0.8,1.2-1.7,1.9-2.8,2.1-6.3,2.3-6.9,2.6-.2,3.2-0.5a25.4,25.4,0,0,0,2.6-1.9c0.4-.4,3.9-1.8,4.9-2.5s2.5-3.6,3.3-4.3-0.4-.4-1.3-1a1,1,0,0,1-.2-1.6c0.2-.3,3.1.4,4,0.8s2.8-.9,2.1-1.4-0.3-.5,0-0.3,0.7-1.7.4-2.1,2.8-2.7,2.3-4.9,0.8-4.5,1.7-4.5,0.6-2.5-.5-2.7,0-.4.4-0.8a6.3,6.3,0,0,0,.6-3c-0.2-.4,1.6-0.9,1.9-1.4a8.5,8.5,0,0,1,3.1-1.6C3254.6,3134.5,3255.1,3132.5,3254.4,3132.5Z" transform="translate(-3109.8 -3111.3)"/><path class="cls-2" d="M3272.4,3134.5c-1-.3-3,0.8-2.7,1.4s-1.6-.8-2.9-0.1-1.7,3-1.1,3.3,1,2.1,1,2.5,2.5,0.1,3.2-.4,0.5,1.8-.1,2.5,0.2,1.9.9,2,1.6,1.7,2.4,1.7,2-2.8,2.2-3.8,2.7-.2,3.8.1,1.5-3.8.3-4.5-2.7-.3-3.2-0.8a3.8,3.8,0,0,0-1.9-1C3273.9,3137.3,3273.4,3134.8,3272.4,3134.5Z" transform="translate(-3109.8 -3111.3)"/><path class="cls-2" d="M3282.1,3136.5a6.9,6.9,0,0,0,4.6-1.8c0.5-.4-5.4-1.6-7.7-1.7s-4,.2-4,0.7S3280.2,3136.2,3282.1,3136.5Z" transform="translate(-3109.8 -3111.3)"/><path class="cls-2" d="M3246.3,3189.6c-0.5-.2-0.8,1.7-0.7,2.4s1.9,0.7,2.7.5a1.6,1.6,0,0,0,1.3-1.4c0-.6-1.1-3.5-1.5-3.5S3246.8,3189.8,3246.3,3189.6Z" transform="translate(-3109.8 -3111.3)"/><path class="cls-2" d="M3252.1,3166.9c-0.4-.7-3.4-0.6-4.2-0.6a10.6,10.6,0,0,1-3.5-1.3c-0.5-.5-0.7,1.9-1.4,2.2s0.4,0.7.6,0.5,0,1.2-.4,1.7,2,0.8,2.3,1.6a2,2,0,0,0,2.1,1.1c0.9-.1,2.7-1.1,3.4-1.2S3252.5,3167.7,3252.1,3166.9Z" transform="translate(-3109.8 -3111.3)"/><path class="cls-2" d="M3316.8,3149.3c1-1,5.4-2.5,5.9-3.6a1.4,1.4,0,0,0-.7-2,1.5,1.5,0,0,0-1.1.7c-0.1.2-5.1,1.3-6.6,2.1a16.6,16.6,0,0,0-3.9,2.5c-0.6.6-1.7,5.6-2,6.1s1.6,2.5,2.5,3.1a4.6,4.6,0,0,0,2.5.2c0.4-.1-0.4-3.5-0.9-4.7S3315.8,3150.4,3316.8,3149.3Z" transform="translate(-3109.8 -3111.3)"/><path class="cls-2" d="M3311.5,3136.4c1.6,1.6,2.5-.7,4.3-0.5C3315.8,3132.5,3311.3,3133.8,3311.5,3136.4Z" transform="translate(-3109.8 -3111.3)"/><path class="cls-2" d="M3343.4,3137.1c0,0.6,4.5,1.1,5.9.8s-0.3-2.3-2.2-2.2S3343.4,3136.5,3343.4,3137.1Z" transform="translate(-3109.8 -3111.3)"/><path class="cls-2" d="M3177,3171.1c-0.5.4,0,2.7,0.8,2.7s2.4-3.4,3.5-2.7,1.9,0.9,1.7.6-3.4-1.7-3.8-2S3177.5,3170.7,3177,3171.1Z" transform="translate(-3109.8 -3111.3)"/><path class="cls-2" d="M3188.7,3247.5c0,0.4,2,.3,2.3-0.3s0.1-1.1-.4-1.1A3.2,3.2,0,0,0,3188.7,3247.5Z" transform="translate(-3109.8 -3111.3)"/><path class="cls-2" d="M3179.8,3244.2c0.9-.2.5,1.3,0.7,1.9s2.5,1,3,1.4,1.6-.7,2.5-0.6-0.3-3.2-1.8-3.1-2.7-1.4-3.1-1.6a16.6,16.6,0,0,1-2.6-1.6c-0.5-.4-4.4-0.7-5.7-0.7a4.1,4.1,0,0,0-3,1.8c-0.2.4,2.1,0.8,2.7,0.4s3.7,0.4,4.4,1.1A3.7,3.7,0,0,0,3179.8,3244.2Z" transform="translate(-3109.8 -3111.3)"/><path class="cls-2" d="M3175.6,3247.5c0,0.4,2,.1,2.5.1s0.5-.4,0-0.7S3175.6,3247.1,3175.6,3247.5Z" transform="translate(-3109.8 -3111.3)"/><path class="cls-2" d="M3177,3237.1c-0.5-.2-0.9.6-0.9,1a0.7,0.7,0,0,0,.6.7C3177.1,3238.8,3177.6,3237.3,3177,3237.1Z" transform="translate(-3109.8 -3111.3)"/><path class="cls-2" d="M3181.3,3237.4a1.7,1.7,0,0,0-1.3-.7c-0.3,0-.4.6-0.4,1.5S3181.4,3237.8,3181.3,3237.4Z" transform="translate(-3109.8 -3111.3)"/><path class="cls-2" d="M3184.3,3242.1c0.8-.4.9-1.3,0.4-1.3s-1.4-1.4-1.9-1.6-0.9.9-.9,1.3a0.6,0.6,0,0,0,.6.7C3182.9,3241.1,3183.5,3242.5,3184.3,3242.1Z" transform="translate(-3109.8 -3111.3)"/><path class="cls-2" d="M3410.4,3273.9c-0.4.2-2.4,0.4-2.7,0.1s-0.6.8-1.1,1-0.2,1.2.5,0.9,2.4,0.8,3.9,1.8c0.3-1.5.6-3.1,0.8-4.7Z" transform="translate(-3109.8 -3111.3)"/><path class="cls-2" d="M3177.9,3291.8c-0.2.4,2.3,2.9,3.2,3.8s3,5,3.4,6.4a11.5,11.5,0,0,1,0,4.1,7,7,0,0,0,.5,2.1c0.1,0.5-.8,4.5-0.5,6.2s-1.9,6.7-1.8,9.3,1.2,5.8,1.6,5.6,0.6,2.3-.1,2.6-1.7,2.3-1.2,2.4,0,2.1.1,2.9,0.8,6.1.9,7.4,2,4.5,2.4,5.6,0.8,3.1.9,3.4l0.3,0.7a9.5,9.5,0,0,1,2,.9c0.4,0.3,3.4.1,4.4-.1s0.1-1.1-.3-1.5-0.8-2.8-1.3-3-0.7-3.2-.3-3.9,2.2-1.7,2.4-2.3,0.2-3.1-.2-3.5,0.1-3.5-.2-5.1,2.7-3,2.9-4.2,3.5-2.6,4.2-3.2,1.4-4.2,1-4.9,1.2-1.4,1.9-1.4a10,10,0,0,0,1.8-.5c0.2,0,1.1-1.6,1.5-1.9s1.4-4.1,2.2-4.7a6.8,6.8,0,0,0,1.5-3.5,9.3,9.3,0,0,1,1.7-3.2c0.4-.6,3.5-2,4.1-2.2s1.4-5.2,1.6-7a40.3,40.3,0,0,1,1.2-4.8c0-.6,1-1.1,1.2-1.3s0.9-2.5,1.4-3,2.2-2.7,2.2-3.2a15.9,15.9,0,0,1,.6-2.8v-3.1c-0.5-1.5-2.2-3.4-2.6-2.9s-2.3-1.3-3.3-1.7a16.3,16.3,0,0,0-4-.6c-0.6,0-2.7-1.7-3.7-2s-3.4-.7-3.8-1-1-3.9-3-5.1-5.4-4-5.8-5-4.1-3.1-5.3-3.8-2.9-.8-3.1-0.5-1.7-2-2.4-2.6-3-1.1-3.1-.6-1.6.2-1.9-.2-1.5.2-2.1,0.4-2.4,3-3.3,3.7-1.9-.6-2.5-0.9a6,6,0,0,0-3.3.9c-0.6.4-1.9-3-1.6-4.6s-1.4-4.7-2.8-4.8-1.7-3.4-1.5-4.6-2.4-2-3.1-2.1-2.3,1.6-2.6,2.5-6.4-1.1-5.7-4.8,3.6-7.5,4.3-7.9,4.6-.6,5.5-0.1a1.6,1.6,0,0,0,1.8-.2,12.2,12.2,0,0,1,4.3.4c0.9,0.4,2.3,4.1,3.3,4.5s1.3-2.4,1.5-3.1a9,9,0,0,0-.7-2.9c-0.2-.5,1.6-5,3.1-5.7s3.1-3.3,2.9-3.7,1.2-.8,1.5-1,0-3.8.5-4.6a17.2,17.2,0,0,1,4.3-2.8c0.9-.4,1.5-2.6,1.2-3.1s2.3-2.6,3.7-3.1,2.5,0.8,2.2.9,2.1-1.1,2.9-1.6,0-2.3-.6-2.8-0.2-2.4.5-2.6,1.3-1.9,1.1-2.2,3,0.3,4.2-.6,0.3,2.1-.5,3.4a1.4,1.4,0,0,0,1.2,2.2,1.3,1.3,0,0,1,1.3,1c0.1,0.3,1.3-.4,2.1,0s1.3-1.1,1.3-1.8-1.9-2-2.2-2.9a46,46,0,0,1-.4-6.5c0-.9-1.3-2.5-1.7-2.2s-1.2-2.5-1.9-3.1a3.5,3.5,0,0,1-.8-2.4c0-.4-2.2-2.8-2.8-3.9s-1.3-.9-1.4-0.4-1.6.6-2.3,0.5-1.2-2.6-1.2-3.5-2.9-1.1-3.4-1.9-2.4-.4-2.7-0.9a3.2,3.2,0,0,0-2.3-.8c-0.3.2-.2,7.1-0.5,8.9s-1.9,3.5-2.5,3.4-0.2,1.3.1,1.2-1.1,2-1.3,3.4-1.6,0-1.8-1.3-1.6-3-1.9-2.6-1.2-.5-1.6-0.2-3-1.5-4.1-2.1-1.6-3.8-2.3-4.1-0.1-.7-0.1-1.2,2.1-2.4,2.7-3.1,2.9-3.7,3.8-4.4,1.6-2.3,1.4-2.6,3.9-1.6,5-1.9,2-3.4,2.2-4.3a3.7,3.7,0,0,0-1.2-2.7c-0.5-.2,1.5-0.3,2.2.1s2.7-.6,3.6-0.2l3.7,2.2-0.2,2.2-0.5,3.8c-3.2,1.3-4.1,3.6-3,3.5s6.2,2.2,7.6,3.2,1.9-1.5,2.3-2.3a6.7,6.7,0,0,0,0-3.7c-0.4-.5,1.6-0.3,2.2.2s1.2-.5,1.6-0.8,0.6-2.3.9-2.7-0.9-.8-1-1.4-2.3-1.5-3-1.9a1.8,1.8,0,0,1-.5-2.2c0.3-.3-0.2-2.3-0.6-2.9s-2.7-1.2-3.5-1.2-1.6-1.8-2.1-2.1a14.6,14.6,0,0,0-4.3-.4c-0.7.2-2.1-2.2-3.4-1.4s-2.6-.8-3.2-1.2-3.6,2.9-3.5,5.1,1.1,4.4,1.6,4.5-0.1,2.1-.6,2.7-1.8-.6-1.3-1.1-1.3-2.9-1.9-3.8-2-1.3-3-1.7l-1.8,2a5.1,5.1,0,0,1,.2,2.7c-0.4,1.4-1.6,1.6-1.6,1a1.7,1.7,0,0,0-1.3-.5l-1.8,2.3-1.8,2.3-1.8,2.5-1.6,2.2-2.3,3.4-2.1,3.3c-0.6.9-1.1,1.9-1.7,2.9a11.2,11.2,0,0,0-1.1,2l-1.7,3.1-0.9,1.8c-1.2,2.4-2.4,4.9-3.5,7.5v0.2l-1.5,3.8-0.6,1.4-1.4,3.9-0.2.6a137.6,137.6,0,0,0-3.9,13.5c-0.1.3-.1,0.6-0.2,0.9a137.9,137.9,0,0,0-2.5,14.7h0a6.6,6.6,0,0,1,1.6,2.3c0.4,1.2,2.5,2,2.9,2.3s0.5-2.3.2-3,0.5-1,.5-0.6,2,2.7,2.6,3.6,1.3,6.1,2,7.2,6.7,3.5,8.7,3.9a11,11,0,0,1,4.8,3.2c0.4,0.6,3,.9,3.5,1.2a27.8,27.8,0,0,1,2.4,2.4,3.5,3.5,0,0,1,1,1.7c0,0.3,3.4,1.6,4.3,2.5a2.1,2.1,0,0,0,2.5.3c0.2-.4.9,1.8,1.3,2.6s0.4,2.6.1,2.9-0.7,3.7-1.3,4.4-1.8,5.7-1.5,6.7a7.4,7.4,0,0,0,2.6,3.3,0.8,0.8,0,0,1-.1,1.4c-0.5,0-.3,4.9,1,5.6S3178.1,3291.5,3177.9,3291.8Z" transform="translate(-3109.8 -3111.3)"/><line class="cls-4" x1="84.4" y1="95.8" x2="84.4" y2="95.8"/><path class="cls-2" d="M3184.7,3148.4c1.6-.3,4.4-0.8,4.6-1.2a4.2,4.2,0,0,0-.1-1.9h0.8c0.6,0,1.7-3.4,2.3-4.2s4.4-2,5.3-2.5,2.9-2.4,3.6-2.7,1.9-2,1.7-2.3,2.6-2,3.6-2.4,1.6-1.6,1.2-1.7-6,3-11.3,6h-0.1l-4.5,3.2-2.9,2.3-1.5,1.2-3.4,2.9-0.7.6-3.7,3.3Z" transform="translate(-3109.8 -3111.3)"/><path class="cls-2" d="M3272.8,3216.3c-0.6,0-.7,1.9,0,2.2s1.1-1.1,1.7-1.9v-7.7h-0.1c-0.8-.8-0.7-0.8.1-0.2V3161l-1.8,1.6c-1.1.9-3.1,4.7-3.7,5.7a2.4,2.4,0,0,1-1.9,1.1,1.9,1.9,0,0,0-.7,1.4c0,0.4-3.3,2.1-3.7,3.6s0.4,5,.4,6.2,1.2,3.7,2.1,3.7,0.5,2.1.2,2.7,0.6,1.2.5,1.7-2.3,1.2-3,1.4a5,5,0,0,0-2,2.5c-0.1.5-2.3,0.9-3.1,1.6s0.5-1.2.6-1.6a2.7,2.7,0,0,0-.5-2.5c-0.3-.3-0.5-4.3-1.1-5.2a22.4,22.4,0,0,0-2.3-2.6c-0.4-.3.2-1.3,0.5-1.8s-1.9-.7-2.4-0.4-0.9,4.3-1.1,5.4a3.4,3.4,0,0,0,1.4,2.8c0.4,0.1.2,2-.5,2.1s-1.4,2.9-1,3.6-0.5,1.9-.9,2.2,2.8,0.1,4.3.1a3.9,3.9,0,0,1,2.5.7c-0.1.1-2.8,0.5-3.3,1.1s-2.3,1.8-2.6,2.3,0.6,1.5,1.3,1.5,1.6,2.6,2.2,3.1a2.2,2.2,0,0,1,.1,2.3c-0.2.4-3.9-.2-5.2,0.1s-3.1,3.2-3.2,4.3a28,28,0,0,0,.4,5.1c0.1,0.8,3,1.4,3.6,1.8s3.3,0,3.9.3,2.4-2.8,2.8-4.2,3.3-4,3.9-5,3.7-.8,4.5-1.3,0.4,2.4.7,4,3.4,1.4,2.9-.1,0.3-2.1.4-1.6,3,1.7,3.6,2.5S3273.4,3216.3,3272.8,3216.3Z" transform="translate(-3109.8 -3111.3)"/><path class="cls-2" d="M3274.5,3225.8a7.8,7.8,0,0,0-1.5-.7c-1.8-.7-3.2-3.4-3.5-3.8s0.3-1.2.1-1.8-4.2-.6-5.4-0.2-7.3,1.1-8.7,1.7-3.6,0-4.3-.1-2.3,1.9-3.1,2.2-1.8,3.2-2.3,6.3l-1.1,2.1-0.7,1.4c-2,1.5-4.2,6.6-4.9,7.7s-1.2,8.4-1.2,10.9,2.1,7.7,2.8,9.2,4.3,4.6,5.6,5.4,5.3,0.9,6.6.9a3.9,3.9,0,0,0,3.3-2.8l1.9,0.2h0.9c0,1.1,2.9,1.9,3.6,2.3a5.5,5.5,0,0,0,3.1-.1c0.5-.1,1.2,4.9.8,6.4s1,6.6,1.4,8.2,2.2,5.8,2.3,7.3-1,6.6-1.2,8.4,2.2,6.7,2.8,8.4a31,31,0,0,1,1.1,6.2,18.6,18.6,0,0,0,1.4,3.6v-89.5h0Z" transform="translate(-3109.8 -3111.3)"/><path class="cls-2" d="M3203.4,3347.9h1.9C3205.5,3345.8,3203.3,3346.1,3203.4,3347.9Z" transform="translate(-3109.8 -3111.3)"/><path class="cls-2" d="M3241.8,3157.6c1,0.4,2.8-.9,2.1-1.4s-0.3-.5,0-0.3,0.7-1.7.4-2.1,2.8-2.7,2.3-4.9,0.9-4.5,1.7-4.5,0.6-2.5-.5-2.7,0-.4.4-0.8a6.3,6.3,0,0,0,.6-3c-0.2-.4,1.6-0.9,1.9-1.4a7.8,7.8,0,0,1,3.1-1.6c0.8-.1,1.1-2.1.4-2a6.4,6.4,0,0,1-3.2-.7c-0.4-.4-3.4-0.7-4.3-0.4s-0.3-2.2.9-2.4,0.2-2-1.1-2-4.6-.5-5.3-0.3a12.9,12.9,0,0,1-2.8-.6c-0.5-.1-4.5,1.2-6.3,1.1a42.2,42.2,0,0,0-7.4.4c-1,.2-1.7,2.2-1.5,2.9s-4.4.7-5.8,0.7-9.1,1.6-11.1,2.7-3.5,3.9-2.9,3.9-1.1,1.6-2.2,2-3.6.5-4.2,1.1,0.6,1,.8,1.4,0.9-.4,1.6,0,2.9,0.5,3.5.8-1.9.7-3,.8-0.9,2.3,0,2.7,3.4,0.6,3.6.2,2.9,0.4,4.1.6,2.1,3.1,2.5,3.8,0.4,2.9.4,3.6,2.1,1.8,2.5,1.4,0.3,1-.6.9-0.3,2.4.8,2.8,0.3,1.9-.3,2.4-0.3,1.9-.9,2.5,2.3,5.6,2.2,8.2,1.6,4.7,2.2,4.7,2.7,0.5,3,1.1,1.3-.4,1.7-0.8,1.2-1.7,1.9-2.8,2.1-6.3,2.3-6.9,2.6-.2,3.2-0.5a25.4,25.4,0,0,0,2.6-1.9c0.4-.4,3.9-1.8,4.9-2.5s2.5-3.6,3.3-4.3-0.4-.4-1.3-1a1,1,0,0,1-.2-1.6C3238,3156.5,3240.9,3157.2,3241.8,3157.6Z" transform="translate(-3109.8 -3111.3)"/><path class="cls-2" d="M3272.4,3134.5c-1-.3-3,0.8-2.7,1.4s-1.6-.8-2.9-0.1-1.7,3-1.1,3.3,1,2.1,1,2.5,2.5,0.1,3.2-.4,0.5,1.8-.1,2.5,0.2,1.9.9,2,1.6,1.7,2.4,1.7a2.4,2.4,0,0,0,1.3-1.5v-8.6h0C3273.9,3137.3,3273.4,3134.8,3272.4,3134.5Z" transform="translate(-3109.8 -3111.3)"/><path class="cls-2" d="M3248.4,3192.5a1.6,1.6,0,0,0,1.3-1.4c0-.6-1.1-3.5-1.5-3.5s-1.2,2.1-1.8,1.9-0.8,1.7-.7,2.4S3247.5,3192.7,3248.4,3192.5Z" transform="translate(-3109.8 -3111.3)"/><path class="cls-2" d="M3245.6,3171a2,2,0,0,0,2.1,1.1c0.9-.1,2.7-1.1,3.4-1.2s1.3-3.3.9-4-3.4-.6-4.2-0.6a10.6,10.6,0,0,1-3.5-1.3c-0.5-.5-0.7,1.9-1.4,2.2s0.3,0.7.6,0.5,0,1.2-.4,1.7S3245.4,3170.4,3245.6,3171Z" transform="translate(-3109.8 -3111.3)"/><path class="cls-2" d="M3177,3171.1c-0.5.4,0,2.7,0.8,2.7s2.4-3.4,3.5-2.7,1.9,0.9,1.7.6-3.4-1.7-3.8-2S3177.5,3170.7,3177,3171.1Z" transform="translate(-3109.8 -3111.3)"/><path class="cls-2" d="M3188.7,3247.5c0,0.4,2,.3,2.3-0.3s0.1-1.1-.4-1.1A3.2,3.2,0,0,0,3188.7,3247.5Z" transform="translate(-3109.8 -3111.3)"/><path class="cls-2" d="M3179.8,3244.2c0.9-.2.5,1.3,0.7,1.9s2.5,1,3,1.4,1.6-.7,2.5-0.6-0.3-3.2-1.8-3.1-2.7-1.4-3.1-1.6a16.6,16.6,0,0,1-2.6-1.6c-0.5-.4-4.4-0.7-5.7-0.7a4.1,4.1,0,0,0-3,1.8c-0.2.4,2.1,0.8,2.7,0.4s3.7,0.4,4.4,1.1A3.7,3.7,0,0,0,3179.8,3244.2Z" transform="translate(-3109.8 -3111.3)"/><path class="cls-2" d="M3175.6,3247.5c0,0.4,2,.1,2.5.1s0.5-.4,0-0.7S3175.6,3247.1,3175.6,3247.5Z" transform="translate(-3109.8 -3111.3)"/><path class="cls-2" d="M3177,3237.1c-0.5-.2-0.9.6-0.9,1a0.7,0.7,0,0,0,.6.7C3177.1,3238.8,3177.6,3237.3,3177,3237.1Z" transform="translate(-3109.8 -3111.3)"/><path class="cls-2" d="M3181.3,3237.4a1.7,1.7,0,0,0-1.3-.7c-0.3,0-.4.6-0.4,1.5S3181.4,3237.8,3181.3,3237.4Z" transform="translate(-3109.8 -3111.3)"/><path class="cls-2" d="M3184.3,3242.1c0.8-.4.9-1.3,0.4-1.3s-1.4-1.4-1.9-1.6-0.9.9-.9,1.3a0.6,0.6,0,0,0,.6.7C3182.9,3241.1,3183.5,3242.5,3184.3,3242.1Z" transform="translate(-3109.8 -3111.3)"/><path class="cls-5" d="M3189.3,3145.6c-0.1-.1-0.7.3-0.4,0.5S3189.6,3145.9,3189.3,3145.6Z" transform="translate(-3109.8 -3111.3)"/><path class="cls-5" d="M3204.7,3191.5c-0.1-.1-0.7.3-0.5,0.5S3205,3191.8,3204.7,3191.5Z" transform="translate(-3109.8 -3111.3)"/><path class="cls-6" d="M3204.1,3151.7h-77.3a16.9,16.9,0,0,0-16.9,16.9v185.3a16.9,16.9,0,0,0,16.9,16.9h77.3a16.9,16.9,0,0,0,16.9-16.9V3168.7A16.8,16.8,0,0,0,3204.1,3151.7Z" transform="translate(-3109.8 -3111.3)"/><path class="cls-7" d="M3150.8,3164.9h29.2a1.5,1.5,0,0,1,1.5,1.5,1.4,1.4,0,0,1-1.5,1.5h-29.2a1.5,1.5,0,0,1-1.5-1.5A1.5,1.5,0,0,1,3150.8,3164.9Z" transform="translate(-3109.8 -3111.3)"/><path class="cls-7" d="M3165.4,3358.4a9.8,9.8,0,1,1,9.8-9.8A9.9,9.9,0,0,1,3165.4,3358.4Z" transform="translate(-3109.8 -3111.3)"/><rect class="cls-7" x="7.3" y="73.8" width="96.5" height="142.89"/><path class="cls-3" d="M3165.4,3341.8a6.9,6.9,0,0,0-6.8,6.8A6.8,6.8,0,1,0,3165.4,3341.8Z" transform="translate(-3109.8 -3111.3)"/><rect class="cls-8" x="12.9" y="106.8" width="85.4" height="43.91"/><rect class="cls-9" x="36.3" y="87.9" width="61.7" height="6.1"/><path class="cls-9" d="M3138.7,3202.3a8,8,0,1,1-8-8A8,8,0,0,1,3138.7,3202.3Z" transform="translate(-3109.8 -3111.3)"/><rect class="cls-9" x="12.9" y="178.9" width="85.4" height="2.51"/><rect class="cls-9" x="12.9" y="187.6" width="85.4" height="2.51"/><rect class="cls-9" x="12.9" y="196.2" width="85.4" height="2.51"/><rect class="cls-9" x="12.9" y="204.8" width="62" height="2.51"/><rect class="cls-9" x="12.9" y="162.2" width="56.8" height="6.1"/><path class="cls-7" d="M3146.4,3243.7v-11.1h2l1.7,4.4,1.2,3.2h0c-0.1-1.2-.2-3.1-0.2-5.1v-2.5h1.9v11.1h-2l-1.7-4.2a32,32,0,0,1-1.1-3.3h0c0,1.1.1,2.8,0.1,5.1v2.5h-1.9Z" transform="translate(-3109.8 -3111.3)"/><path class="cls-7" d="M3159.6,3238.8h-2.5v3h2.9v1.9h-5v-11.1h4.8v1.9h-2.7v2.6h2.5v1.8Z" transform="translate(-3109.8 -3111.3)"/><path class="cls-7" d="M3162.6,3234.6h-2v-2h6.1v2h-2v9.1h-2.2v-9.1Z" transform="translate(-3109.8 -3111.3)"/><path class="cls-7" d="M3169.4,3243.7l-1.9-11.1h2.2l0.5,4.4c0.1,1.3.2,2.5,0.4,3.9h0c0.1-1.4.4-2.6,0.6-3.9l0.8-4.4h1.7l0.7,4.4c0.2,1.3.4,2.5,0.5,3.9h0l0.4-3.9,0.5-4.4h2.1l-2,11.1H3174l-0.7-3.6c-0.2-1-.3-2.3-0.5-3.6h0c-0.2,1.3-.4,2.6-0.6,3.7l-0.7,3.6h-2.1Z" transform="translate(-3109.8 -3111.3)"/><path class="cls-7" d="M3186,3238c0,4.2-1.5,5.9-3.6,5.9s-3.5-2.7-3.5-5.7,1.2-5.7,3.7-5.7S3186,3235.4,3186,3238Zm-4.9.2c0,2.5.5,3.8,1.4,3.8s1.3-1.6,1.3-3.9-0.3-3.7-1.3-3.7S3181.1,3235.8,3181.1,3238.2Z" transform="translate(-3109.8 -3111.3)"/><path class="cls-7" d="M3187.3,3232.8l2.4-.2a4.3,4.3,0,0,1,3,.8,2.8,2.8,0,0,1,.9,2.3,3,3,0,0,1-1.7,2.8h0c0.8,0.3,1.1,1,1.4,2.2a17.9,17.9,0,0,0,.7,3h-2.3a15.3,15.3,0,0,1-.5-2.7c-0.2-1.4-.5-1.8-1.3-1.8h-0.3v4.4h-2.2v-10.9Zm2.2,4.8h0.4a1.5,1.5,0,0,0,1.5-1.7,1.4,1.4,0,0,0-1.4-1.6h-0.5v3.3Z" transform="translate(-3109.8 -3111.3)"/><path class="cls-7" d="M3195.1,3232.6h2.2v5h0l0.5-1.4,1.5-3.6h2.4l-2.5,4.8,2.5,6.3h-2.4l-1.6-4.6-0.5.9v3.7h-2.2v-11.1Z" transform="translate(-3109.8 -3111.3)"/><g id="Page-1"><g id="xamagon"><path id="Logo" class="cls-7" d="M3131.5,3231a1.3,1.3,0,0,0-1.3.5l-4,6.8a1.4,1.4,0,0,0,0,1.4l4,6.8a1.4,1.4,0,0,0,1.3.6h8a1.4,1.4,0,0,0,1.3-.6l4-6.8a1.4,1.4,0,0,0,0-1.4l-4-6.6a1.3,1.3,0,0,0-1.3-.5h-8Zm0.1,3.3V3234h1.4a1.1,1.1,0,0,1,.2.4l2.3,4.3h0l2.3-4.4a0.9,0.9,0,0,1,.2-0.3h1.4a0.5,0.5,0,0,1,.2.5l-2.3,4.2,2.3,3.5c0.1,0.1,0-.3-0.2-0.3H3138c-0.1,0-.1.6-0.2,0.5l-2.3-3.8h0l-2.3,3.6c0,0.1-.1-0.5-0.2-0.5h-1.4c-0.1,0-.2.4-0.2,0.3l2.3-3.8-2.3-4a0.2,0.2,0,0,1,.1-0.3h0Z" transform="translate(-3109.8 -3111.3)"/></g></g></g></svg>